# xmcd CD database file
#
# Track frame offsets:
#	150
#	14455
#	63286
#	82595
#	120284
#	152914
#
# Disc length: 2607 seconds
#
# Revision: 0
# Processed by: cddbd v1.5PL3 Copyright (c) Steve Scherf et al.
# Submitted via: CDex 1.51
#
DISCID=370a2d06
DTITLE=In the pocket - Soft
DYEAR=2003
DGENRE=Jazz
TTITLE0=Euforia
TTITLE1=Timeflow
TTITLE2=Urgent Message
TTITLE3=Postman
TTITLE4=Satori
TTITLE5=Pipeline
EXTD=YEAR: 2003
EXTT0=
EXTT1=
EXTT2=
EXTT3=
EXTT4=
EXTT5=
PLAYORDER=
